<svg width="26" height="25" viewBox="0 0 26 25" fill="none" xmlns="http://www.w3.org/2000/svg">
<g clip-path="url(#clip0_1378_208)">
<path d="M9.97222 1.38889C9.97222 1.38889 9.97222 0 11.3611 0C12.75 0 12.75 1.38889 12.75 1.38889V2.77778C12.75 2.77778 12.75 4.16667 11.3611 4.16667C9.97222 4.16667 9.97222 2.77778 9.97222 2.77778V1.38889ZM21.0833 9.72222C21.0833 9.72222 22.4722 9.72222 22.4722 11.1111C22.4722 12.5 21.0833 12.5 21.0833 12.5H19.6944C19.6944 12.5 18.3056 12.5 18.3056 11.1111C18.3056 9.72222 19.6944 9.72222 19.6944 9.72222H21.0833ZM3.02778 9.72222C3.02778 9.72222 4.41667 9.72222 4.41667 11.1111C4.41667 12.5 3.02778 12.5 3.02778 12.5H1.63889C1.63889 12.5 0.25 12.5 0.25 11.1111C0.25 9.72222 1.63889 9.72222 1.63889 9.72222H3.02778ZM5.71667 4.19653C5.71667 4.19653 6.69861 5.17847 5.71667 6.16042C4.73472 7.14236 3.75278 6.16042 3.75278 6.16042L2.77014 5.17917C2.77014 5.17917 1.78819 4.19722 2.77014 3.21458C3.75278 2.23264 4.73472 3.21458 4.73472 3.21458L5.71667 4.19653ZM18.9701 6.16042C18.9701 6.16042 17.9882 7.14236 17.0063 6.16042C16.0243 5.17847 17.0063 4.19653 17.0063 4.19653L17.9882 3.21458C17.9882 3.21458 18.9701 2.23264 19.9521 3.21458C20.934 4.19653 19.9521 5.17847 19.9521 5.17847L18.9701 6.16042Z" fill="#FFC700"/>
<path d="M11.3611 17.3611C14.8129 17.3611 17.6111 14.5629 17.6111 11.1111C17.6111 7.6593 14.8129 4.86108 11.3611 4.86108C7.9093 4.86108 5.11108 7.6593 5.11108 11.1111C5.11108 14.5629 7.9093 17.3611 11.3611 17.3611Z" fill="#FFC700"/>
<path d="M19.6944 13.8889C19.1215 13.8889 18.5694 13.9757 18.0493 14.1368C17.741 13.2532 17.1656 12.4874 16.4028 11.9453C15.6399 11.4032 14.7275 11.1117 13.7917 11.1111C11.6778 11.1111 9.90833 12.5666 9.41736 14.5284C8.87907 14.1155 8.22008 13.8908 7.54167 13.8889C6.71286 13.8889 5.91801 14.2181 5.33196 14.8042C4.74591 15.3902 4.41667 16.1851 4.41667 17.0139C4.41667 17.4333 4.50208 17.8319 4.65208 18.1972C4.35003 18.1078 4.03718 18.0602 3.72222 18.0555C1.80417 18.0555 0.25 19.6097 0.25 21.5278C0.25 23.4458 1.80417 25 3.72222 25H19.6944C21.1679 25 22.5809 24.4147 23.6228 23.3728C24.6647 22.3309 25.25 20.9178 25.25 19.4444C25.25 17.971 24.6647 16.5579 23.6228 15.516C22.5809 14.4742 21.1679 13.8889 19.6944 13.8889Z" fill="white"/>
</g>
<defs>
<clipPath id="clip0_1378_208">
<rect width="25" height="25" fill="white" transform="translate(0.25)"/>
</clipPath>
</defs>
</svg>
