<svg width="26" height="25" viewBox="0 0 26 25" fill="none" xmlns="http://www.w3.org/2000/svg">
<g clip-path="url(#clip0_1378_224)">
<path d="M16.2778 1.69434C16.2778 1.69434 16.2778 0.694336 17.2778 0.694336C18.2778 0.694336 18.2778 1.69434 18.2778 1.69434V2.69434C18.2778 2.69434 18.2778 3.69434 17.2778 3.69434C16.2778 3.69434 16.2778 2.69434 16.2778 2.69434V1.69434ZM24.2778 7.69434C24.2778 7.69434 25.2778 7.69434 25.2778 8.69434C25.2778 9.69434 24.2778 9.69434 24.2778 9.69434H23.2778C23.2778 9.69434 22.2778 9.69434 22.2778 8.69434C22.2778 7.69434 23.2778 7.69434 23.2778 7.69434H24.2778ZM11.2778 7.69434C11.2778 7.69434 12.2778 7.69434 12.2778 8.69434C12.2778 9.69434 11.2778 9.69434 11.2778 9.69434H10.2778C10.2778 9.69434 9.27783 9.69434 9.27783 8.69434C9.27783 7.69434 10.2778 7.69434 10.2778 7.69434H11.2778ZM13.2138 3.71584C13.2138 3.71584 13.9208 4.42284 13.2138 5.12984C12.5068 5.83684 11.7998 5.12984 11.7998 5.12984L11.0923 4.42334C11.0923 4.42334 10.3853 3.71634 11.0923 3.00884C11.7998 2.30184 12.5068 3.00884 12.5068 3.00884L13.2138 3.71584ZM22.7563 5.12984C22.7563 5.12984 22.0493 5.83684 21.3423 5.12984C20.6353 4.42284 21.3423 3.71584 21.3423 3.71584L22.0493 3.00884C22.0493 3.00884 22.7563 2.30184 23.4633 3.00884C24.1703 3.71584 23.4633 4.42284 23.4633 4.42284L22.7563 5.12984Z" fill="#FFC700"/>
<path d="M17.2778 13.1943C19.7631 13.1943 21.7778 11.1796 21.7778 8.69434C21.7778 6.20905 19.7631 4.19434 17.2778 4.19434C14.7926 4.19434 12.7778 6.20905 12.7778 8.69434C12.7778 11.1796 14.7926 13.1943 17.2778 13.1943Z" fill="#FFC700"/>
<path d="M4.73242 18.0235C4.69141 18.0078 4.64649 18 4.60352 18.0039C4.34766 18.0215 3.01172 19.2129 2.66211 20.0723C2.42383 20.6582 2.70703 21.3281 3.29297 21.5664C3.87891 21.8047 4.55078 21.5215 4.78906 20.9356C5.05274 20.2852 5.125 18.1836 4.73242 18.0235ZM8.97656 21.1875C8.93555 21.1699 8.89063 21.1641 8.84766 21.168C8.5918 21.1856 7.25586 22.377 6.90625 23.2363C6.66797 23.8223 6.95117 24.4922 7.53711 24.7305C8.12305 24.9688 8.79492 24.6856 9.0332 24.0996C9.29688 23.4512 9.36914 21.3477 8.97656 21.1875ZM14.248 18.9238C14.207 18.9063 14.1621 18.9004 14.1191 18.9024C13.8633 18.9199 12.5273 20.1113 12.1777 20.9707C11.9395 21.5567 12.2227 22.2266 12.8086 22.4649C13.3945 22.7031 14.0664 22.4199 14.3047 21.834C14.5684 21.1856 14.6406 19.084 14.248 18.9238ZM19.0449 20.3086C19.0039 20.293 18.959 20.2852 18.916 20.2891C18.6602 20.3067 17.3242 21.4981 16.9746 22.3574C16.7363 22.9414 17.0195 23.6133 17.6055 23.8516C18.1914 24.0899 18.8633 23.8067 19.1016 23.2207C19.3652 22.5703 19.4375 20.4668 19.0449 20.3086Z" fill="#70B2E2"/>
<path d="M18.9453 10.3262C18.9434 10.3145 18.9453 10.3047 18.9453 10.293C18.9453 8.80078 17.7364 7.5918 16.2442 7.5918C16.0528 7.5918 15.8653 7.61328 15.6836 7.65039C15.1485 6.34766 13.8692 5.42969 12.3731 5.42969C11.25 5.42969 10.2481 5.94727 9.59183 6.75781C9.16995 6.54297 8.69339 6.41992 8.18558 6.41992C6.56839 6.41992 5.24222 7.65234 5.08792 9.22656C3.32815 9.31836 1.918 10.7598 1.89456 12.5469C1.87112 14.4102 3.36136 15.9395 5.22464 15.9629C5.36917 15.9648 5.51175 15.9551 5.65042 15.9395C6.36917 17.457 7.91604 18.5059 9.70706 18.5059C10.7871 18.5059 11.7793 18.123 12.5528 17.4883C13.1446 17.9258 13.875 18.1895 14.668 18.1895C16.295 18.1895 17.666 17.0977 18.0918 15.6074C18.3594 15.6973 18.6465 15.7461 18.9434 15.7461C20.4395 15.7461 21.6524 14.5332 21.6524 13.0371C21.6563 11.541 20.4414 10.3262 18.9453 10.3262Z" fill="#E3EBEE"/>
<path d="M20.5391 10.8438C21.1523 11.4629 20.7187 12.8848 20.2969 13.3496C19.4668 14.2598 17.9414 14.0469 17.3281 13.916C17.1621 13.8809 17.1367 13.8926 17.082 13.9258C17.0332 13.9551 17.0117 14.002 16.959 14.1133C16.7617 14.5371 16.2539 15.3613 15.1797 15.6934C14.0605 16.0391 13.0039 15.5137 12.5098 15.1973C12.3223 15.0781 12.3145 15.0762 12.2305 15.0762C12.1445 15.0762 12.0586 15.1406 11.959 15.2207C11.5137 15.5723 10.4922 16.1914 8.91992 16.1016C7.37695 16.0137 6.49609 15.0625 6.19336 14.5742C6.13477 14.4805 6.07227 14.4023 6.00195 14.3945C5.91992 14.3867 5.82812 14.4707 5.75781 14.5391C5.10156 15.1777 3.03711 15.3691 2.35156 14.2813C3.04687 15.3984 4.12305 15.9512 5.22852 15.9648C5.37305 15.9668 5.51562 15.957 5.6543 15.9414C6.37305 17.459 7.91992 18.5078 9.71094 18.5078C10.791 18.5078 11.7832 18.125 12.5566 17.4902C13.1484 17.9277 13.8789 18.1914 14.6719 18.1914C16.2988 18.1914 17.6699 17.0996 18.0957 15.6094C18.3633 15.6992 18.6504 15.748 18.9473 15.748C20.4434 15.748 21.6562 14.5352 21.6562 13.0391C21.6562 12.2402 21.2559 11.3398 20.5391 10.8438Z" fill="#B9CDD2"/>
</g>
<defs>
<clipPath id="clip0_1378_224">
<rect width="25" height="25" fill="white" transform="translate(0.25)"/>
</clipPath>
</defs>
</svg>
