<svg width="26" height="25" viewBox="0 0 26 25" fill="none" xmlns="http://www.w3.org/2000/svg">
<g clip-path="url(#clip0_1378_217)">
<path d="M11.6111 1.38889C11.6111 1.38889 11.6111 0 13 0C14.3889 0 14.3889 1.38889 14.3889 1.38889V2.77778C14.3889 2.77778 14.3889 4.16667 13 4.16667C11.6111 4.16667 11.6111 2.77778 11.6111 2.77778V1.38889ZM24.1111 11.1111C24.1111 11.1111 25.5 11.1111 25.5 12.5C25.5 13.8889 24.1111 13.8889 24.1111 13.8889H22.7222C22.7222 13.8889 21.3333 13.8889 21.3333 12.5C21.3333 11.1111 22.7222 11.1111 22.7222 11.1111H24.1111ZM3.27778 11.1111C3.27778 11.1111 4.66667 11.1111 4.66667 12.5C4.66667 13.8889 3.27778 13.8889 3.27778 13.8889H1.88889C1.88889 13.8889 0.5 13.8889 0.5 12.5C0.5 11.1111 1.88889 11.1111 1.88889 11.1111H3.27778ZM6.83403 5.06458C6.83403 5.06458 7.81597 6.04653 6.83403 7.02847C5.85208 8.01042 4.87014 7.02847 4.87014 7.02847L3.8875 6.04722C3.8875 6.04722 2.90556 5.06528 3.8875 4.08264C4.87014 3.10069 5.85208 4.08264 5.85208 4.08264L6.83403 5.06458ZM21.4174 19.6479C21.4174 19.6479 22.3993 20.6299 21.4174 21.6118C20.4354 22.5938 19.4535 21.6118 19.4535 21.6118L18.4715 20.6299C18.4715 20.6299 17.4896 19.6479 18.4715 18.666C19.4535 17.684 20.4354 18.666 20.4354 18.666L21.4174 19.6479ZM21.1306 7.02847C21.1306 7.02847 20.1486 8.01042 19.1667 7.02847C18.1847 6.04653 19.1667 5.06458 19.1667 5.06458L20.1486 4.08264C20.1486 4.08264 21.1306 3.10069 22.1125 4.08264C23.0944 5.06458 22.1125 6.04653 22.1125 6.04653L21.1306 7.02847ZM6.54722 21.6118C6.54722 21.6118 5.56528 22.5938 4.58333 21.6118C3.60139 20.6299 4.58333 19.6479 4.58333 19.6479L5.56528 18.666C5.56528 18.666 6.54722 17.684 7.52917 18.666C8.51111 19.6479 7.52917 20.6299 7.52917 20.6299L6.54722 21.6118ZM11.6111 22.2222C11.6111 22.2222 11.6111 20.8333 13 20.8333C14.3889 20.8333 14.3889 22.2222 14.3889 22.2222V23.6111C14.3889 23.6111 14.3889 25 13 25C11.6111 25 11.6111 23.6111 11.6111 23.6111V22.2222Z" fill="#FFC700"/>
<path d="M13 19.4446C16.8353 19.4446 19.9444 16.3354 19.9444 12.5001C19.9444 8.6648 16.8353 5.55566 13 5.55566C9.16468 5.55566 6.05554 8.6648 6.05554 12.5001C6.05554 16.3354 9.16468 19.4446 13 19.4446Z" fill="#FFC700"/>
</g>
<defs>
<clipPath id="clip0_1378_217">
<rect width="25" height="25" fill="white" transform="translate(0.5)"/>
</clipPath>
</defs>
</svg>
